<?xml version="1.0" encoding="utf-8"?>
<!-- Generator: Adobe Illustrator 24.0.0, SVG Export Plug-In . SVG Version: 6.00 Build 0)  -->
<svg version="1.1" id="图层_1" xmlns="http://www.w3.org/2000/svg" xmlns:xlink="http://www.w3.org/1999/xlink" x="0px" y="0px"
	 viewBox="0 0 200 200" style="enable-background:new 0 0 200 200;" xml:space="preserve">
<style type="text/css">
	.st0{fill:#ffffff;}
</style>
<g>
	<path class="st0" d="M72.2,100.1c0,28.9,0,57.7,0,86.6c0,3.6-1,4.2-4.9,2.8c-11.4-3.9-22.8-7.8-34.3-11.7c-7.3-2.5-14.6-5-21.9-7.5
		c-3.4-1.2-4.1-2.2-4.1-5.7c0-44.2,0-88.4,0-132.7c0-2.5,0.7-3.6,3.4-4.4c8.5-2.6,17-5.1,25.4-7.7c10.5-3.2,21-6.5,31.6-9.6
		c4-1.1,4.8-0.4,4.8,3.2C72.2,42.4,72.2,71.2,72.2,100.1z M62.7,100.7c0.1-2.7-2-5.3-4.2-5.3c-2.1,0-4.2,2.5-4.3,5.1
		c-0.1,2.5,2,5.1,4.2,5.2C60.5,105.7,62.7,103.3,62.7,100.7z"/>
	<path class="st0" d="M115.4,53.9c0,5.8,0,11.6,0,17.4c0,3.5-2.3,6-5.4,6c-3,0-5.4-2.5-5.3-6c0-10.8,0-21.6,0.1-32.4
		c0-2.1-0.7-2.8-2.7-2.8c-5.6,0.1-11.1,0-16.7,0c-0.8,0-1.6,0-2.3-0.2c-2.4-0.5-3.8-2.5-3.6-4.8c0.2-2.1,1.9-3.6,4.3-3.6
		c4.6-0.1,9.3,0,13.9,0c2.7,0,5.4,0,8.1,0c5.5,0.1,9.4,3.9,9.5,9.5c0,2.9,0,5.7,0,8.6C115.4,48.3,115.4,51.1,115.4,53.9
		C115.4,53.9,115.4,53.9,115.4,53.9z"/>
	<path class="st0" d="M104.8,146.6c0-5.8,0-11.6,0-17.4c0-3.5,2.2-6.1,5.2-6.1c3.1,0,5.4,2.5,5.4,6c0,11.7,0,23.4,0,35.1
		c0,3.5-2.2,6-5.3,6.1c-3,0.1-5.3-2.5-5.3-6C104.8,158.5,104.8,152.5,104.8,146.6z"/>
	<g>
		<path class="st0" d="M81.6,100.9L81.6,100.9c0-8.3,6.4-15,15.1-15c5.2,0,8.3,1.4,11.3,4l-4,4.8c-2.2-1.9-4.2-2.9-7.5-2.9
			c-4.6,0-8.3,4.1-8.3,9v0.1c0,5.3,3.6,9.2,8.7,9.2c2.3,0,4.4-0.6,6-1.7v-4.1h-6.4v-5.5h12.5v12.5c-3,2.5-7.1,4.6-12.3,4.6
			C87.8,115.8,81.6,109.5,81.6,100.9z"/>
		<path class="st0" d="M115.5,86.4h6.3v28.9h-6.3V86.4z"/>
		<path class="st0" d="M129.1,86.4h6.8l7.6,12.2l7.6-12.2h6.8v28.9h-6.3V96.4l-8.1,12.3h-0.2l-8-12.2v18.7h-6.2V86.4z"/>
		<path class="st0" d="M174.8,86.2h5.9l12.4,29.1h-6.6l-2.6-6.5h-12.2l-2.6,6.5h-6.5L174.8,86.2z M181.5,103.2l-3.8-9.4l-3.8,9.4
			H181.5z"/>
	</g>
</g>
</svg>
